<svg xmlns="http://www.w3.org/2000/svg" width="33" height="36" viewBox="0 0 33 36"><g><g><path fill="#5ac8fb" d="M14.027 33.345c-.682-.69-1.023-1.524-1.023-2.501 0-.214.106-.322.318-.322.211 0 .318.108.318.322 0 .79.28 1.47.844 2.039.563.569 1.234.853 2.016.853.212 0 .318.107.318.322 0 .214-.106.321-.318.321a3.35 3.35 0 0 1-2.473-1.034zM9.349 9.448a7.687 7.687 0 0 1 1.37-2.069c.597-.656 1.401-1.195 2.414-1.617 1.013-.422 2.135-.633 3.367-.633 1.232 0 2.354.211 3.367.633 1.013.422 1.817.961 2.413 1.617a7.69 7.69 0 0 1 1.37 2.07c.319.723.478 1.426.478 2.109 0 7.125 1.76 12.696 5.283 16.714H3.59c3.522-4.018 5.283-9.589 5.283-16.714 0-.683.16-1.386.477-2.11zm21.87 17.056c-.543-.616-1.106-1.416-1.689-2.4a18.116 18.116 0 0 1-1.48-3.185c-.404-1.138-.734-2.517-.993-4.138a33.227 33.227 0 0 1-.387-5.223c0-2.036-.775-3.928-2.324-5.675-1.55-1.748-3.582-2.81-6.098-3.184a2.02 2.02 0 0 0 .159-.784c0-.535-.186-.99-.556-1.366A1.83 1.83 0 0 0 16.5-.014c-.53 0-.98.188-1.35.563-.372.375-.557.83-.557 1.366 0 .268.053.53.159.784-2.516.375-4.549 1.436-6.098 3.184-1.55 1.747-2.324 3.64-2.324 5.675 0 1.862-.13 3.603-.387 5.223-.259 1.62-.59 3-.994 4.138a18.149 18.149 0 0 1-1.48 3.185c-.582.984-1.145 1.784-1.688 2.4a17.572 17.572 0 0 1-1.808 1.768c0 .697.252 1.3.755 1.808.503.51 1.1.764 1.788.764h8.899c0 1.42.496 2.631 1.49 3.636.993 1.004 2.191 1.506 3.595 1.506 1.403 0 2.602-.502 3.595-1.506.993-1.005 1.49-2.217 1.49-3.636h8.899c.688 0 1.284-.255 1.788-.764.503-.509.754-1.111.754-1.808a17.48 17.48 0 0 1-1.807-1.768z"/></g></g></svg>