<svg xmlns="http://www.w3.org/2000/svg" width="37" height="32" viewBox="0 0 37 32"><g><g><path fill="#5ac8fb" d="M34.357 10.666c.73 0 1.352.26 1.869.78a2.57 2.57 0 0 1 .774 1.88 2.57 2.57 0 0 1-.774 1.88c-.517.52-1.14.78-1.869.78v7.98c0 .72-.262 1.343-.785 1.87-.523.526-1.142.789-1.858.789-5.74-4.807-11.328-7.44-16.765-7.896-.799.263-1.425.72-1.88 1.371-.454.652-.667 1.348-.64 2.089.028.74.303 1.381.827 1.922-.276.457-.434.91-.475 1.36-.042.451 0 .853.124 1.206.123.353.354.734.691 1.143.337.409.668.755.991 1.039.323.284.747.633 1.27 1.049-.4.803-1.166 1.378-2.302 1.725a7.674 7.674 0 0 1-3.48.239c-1.183-.187-2.092-.572-2.725-1.153a58.74 58.74 0 0 0-.609-1.819c-.31-.893-.53-1.548-.66-1.963-.131-.416-.29-1.032-.475-1.85-.186-.817-.29-1.517-.31-2.098-.02-.582.003-1.264.072-2.047.069-.783.22-1.548.455-2.296h-2.52c-.908 0-1.686-.326-2.333-.977A3.211 3.211 0 0 1 0 15.321v-3.99c0-.914.323-1.696.97-2.348.647-.65 1.425-.976 2.334-.976h9.91c5.988 0 12.154-2.66 18.5-7.98.716 0 1.335.264 1.858.79.523.527.785 1.15.785 1.87zm-18.5 5.466c5.19.581 10.475 2.943 15.857 7.085V3.394c-5.423 4.183-10.709 6.56-15.857 7.127z"/></g></g></svg>