<svg xmlns="http://www.w3.org/2000/svg" width="35" height="27" viewBox="0 0 35 27"><g><g><path fill="#5ac8fb" d="M32.314 24.395a.605.605 0 0 1-.44.183H3.125a.604.604 0 0 1-.439-.183.585.585 0 0 1-.185-.432V9.2c.417.46.866.884 1.348 1.268 3.489 2.64 6.262 4.806 8.32 6.497.664.551 1.204.98 1.621 1.288.417.308.98.618 1.69.932.709.315 1.376.471 2.001.471h.04c.625 0 1.292-.156 2.001-.47.71-.315 1.273-.625 1.69-.933.416-.307.957-.737 1.621-1.288 2.057-1.691 4.83-3.857 8.32-6.497.482-.384.931-.807 1.348-1.268v14.762c0 .167-.062.31-.186.432zM31.592 6.29c-.606.929-1.26 1.669-1.963 2.22a2824.243 2824.243 0 0 0-7.832 6.093l-.684.567c-.378.314-.677.554-.898.72a18.24 18.24 0 0 1-.87.606 5.218 5.218 0 0 1-.986.529c-.3.115-.58.173-.84.173h-.039c-.26 0-.54-.058-.84-.173a5.2 5.2 0 0 1-.986-.529 17.907 17.907 0 0 1-.869-.605c-.221-.167-.52-.407-.898-.721l-.684-.567c-2.708-2.114-5.32-4.145-7.832-6.093C3.457 7.022 2.5 5.203 2.5 3.049c0-.166.062-.31.185-.432a.606.606 0 0 1 .44-.182h28.75a.72.72 0 0 1 .273.048c.078.032.137.08.176.144l.108.173a.524.524 0 0 1 .058.24c.007.11.01.192.01.25v.47c0 .757-.303 1.6-.908 2.529zm2.49-5.411a3.034 3.034 0 0 0-2.207-.904H3.125c-.86 0-1.595.301-2.207.904C.306 1.48 0 2.204 0 3.05v20.913c0 .846.306 1.57.918 2.172a3.033 3.033 0 0 0 2.207.903h28.75c.86 0 1.595-.3 2.207-.903.612-.603.918-1.326.918-2.172V3.05c0-.846-.306-1.57-.918-2.172z"/></g></g></svg>